<?xml version="1.0" encoding="UTF-8"?>
<svg id="Layer_2" data-name="Layer 2" xmlns="http://www.w3.org/2000/svg" viewBox="0 0 2029.9 478.06">
  <defs>
    <style>
      .cls-1 {
        fill: #f6881f;
      }

      .cls-2 {
        fill: #fff;
      }
    </style>
  </defs>
  <g id="Layer_1-2" data-name="Layer 1">
    <polygon class="cls-2" points="499.77 221.17 439.64 221.17 439.64 181.06 603.37 181.06 603.37 221.17 543.25 221.17 543.25 378.67 499.77 378.67 499.77 221.17"/>
    <rect class="cls-2" x="638.67" y="181.09" width="43.44" height="197.61"/>
    <path class="cls-2" d="M802.13,381.53c-15.07,0-29.86-2.62-44.3-7.77-14.53-5.18-27.69-13.15-39.57-23.87l25.7-30.76c9.04,7.32,18.32,13.17,27.82,17.48,9.5,4.35,19.9,6.5,31.2,6.5,9,0,16.03-1.64,21.04-4.95,4.98-3.28,7.45-7.84,7.45-13.67v-.57c0-2.84-.49-5.3-1.55-7.5-1.02-2.15-3.02-4.16-5.94-6.05-2.91-1.89-6.96-3.78-12.14-5.67-5.21-1.84-11.94-3.84-20.23-5.89-10.06-2.45-19.07-5.18-27.21-8.23-8.1-3-14.99-6.7-20.66-11.12-5.65-4.46-10.02-9.96-13.15-16.52-3.11-6.6-4.68-14.78-4.68-24.57v-.57c0-9.04,1.67-17.16,5.05-24.44,3.34-7.22,8.07-13.48,14.14-18.76,6.09-5.26,13.35-9.32,21.79-12.13,8.43-2.84,17.72-4.26,27.89-4.26,14.51,0,27.81,2.2,39.96,6.52,12.15,4.32,23.29,10.52,33.45,18.63l-22.6,32.73c-8.84-6-17.5-10.74-25.94-14.27-8.5-3.44-16.98-5.21-25.41-5.21s-14.83,1.67-19.08,4.96c-4.24,3.28-6.36,7.38-6.36,12.29v.54c0,3.21.63,5.99,1.84,8.36,1.25,2.34,3.46,4.46,6.65,6.34,3.22,1.88,7.6,3.66,13.17,5.37,5.57,1.69,12.59,3.66,21.11,5.92,9.99,2.64,18.92,5.61,26.75,8.9,7.83,3.28,14.43,7.23,19.79,11.87,5.37,4.61,9.44,10,12.19,16.2,2.73,6.21,4.1,13.63,4.1,22.29v.56c0,9.82-1.75,18.52-5.33,26.13-3.56,7.61-8.51,14.01-14.86,19.19-6.37,5.19-13.95,9.12-22.77,11.85-8.8,2.75-18.6,4.12-29.3,4.12"/>
    <polygon class="cls-2" points="912.23 181.09 955.69 181.09 955.69 267.45 1035.89 181.09 1088.37 181.09 1007.91 264.93 1092.07 378.7 1039.82 378.7 978.57 294.56 955.69 318.27 955.69 378.7 912.23 378.7 912.23 181.09"/>
    <path class="cls-2" d="M1213.64,121.24h33.09l22.36,18.62,22.35-18.62h32.58l-34.84,44.29h-40.75l-34.79-44.29ZM1273.58,381.53c-15.05,0-29.84-2.6-44.3-7.77-14.5-5.19-27.69-13.15-39.54-23.87l25.68-30.75c9.02,7.32,18.3,13.15,27.79,17.48,9.51,4.36,19.94,6.51,31.24,6.51,9.01,0,16.02-1.64,21.01-4.96,4.99-3.3,7.47-7.86,7.47-13.67v-.59c0-2.81-.53-5.31-1.55-7.48-1.04-2.16-3-4.18-5.98-6.05-2.89-1.89-6.95-3.78-12.15-5.65-5.19-1.88-11.93-3.85-20.21-5.91-10.01-2.44-19.06-5.19-27.18-8.19-8.12-3.01-15.01-6.73-20.69-11.17-5.66-4.42-10.04-9.9-13.15-16.49-3.11-6.59-4.66-14.81-4.66-24.58v-.55c0-9.08,1.69-17.19,5.02-24.42,3.38-7.27,8.09-13.53,14.17-18.79,6.09-5.27,13.34-9.32,21.77-12.13,8.47-2.84,17.75-4.24,27.91-4.24,14.48,0,27.8,2.16,39.95,6.5,12.14,4.33,23.3,10.54,33.47,18.63l-22.58,32.74c-8.88-5.99-17.54-10.75-25.97-14.25-8.48-3.46-16.94-5.21-25.44-5.21s-14.82,1.65-19.05,4.91c-4.24,3.3-6.38,7.43-6.38,12.31v.57c0,3.21.63,5.96,1.87,8.31,1.22,2.38,3.43,4.49,6.63,6.34,3.22,1.91,7.6,3.7,13.18,5.37,5.55,1.68,12.58,3.68,21.09,5.95,9.99,2.62,18.91,5.61,26.74,8.88,7.83,3.32,14.45,7.27,19.82,11.86,5.37,4.62,9.42,10.02,12.15,16.23,2.74,6.22,4.13,13.67,4.13,22.32v.58c0,9.79-1.78,18.47-5.32,26.09-3.56,7.64-8.54,14.01-14.85,19.19-6.39,5.19-13.97,9.13-22.78,11.88-8.84,2.7-18.6,4.1-29.33,4.1"/>
    <polygon class="cls-2" points="1383.7 181.09 1532.47 181.09 1532.47 219.74 1426.6 219.74 1426.6 259.85 1519.78 259.85 1519.78 298.52 1426.6 298.52 1426.6 339.99 1533.89 339.99 1533.89 378.7 1383.7 378.7 1383.7 181.09"/>
    <path class="cls-2" d="M1650.75,280.72c10.91,0,19.38-2.86,25.4-8.6,6.05-5.75,9.06-12.86,9.06-21.33v-.55c0-9.78-3.17-17.21-9.46-22.3-6.32-5.09-14.93-7.63-25.84-7.63h-33.6v60.41h34.43ZM1572.86,181.09h80.72c11.86,0,22.45,1.63,31.78,4.92,9.3,3.32,17.23,7.97,23.69,13.96,6.52,6.03,11.5,13.23,14.97,21.63,3.5,8.37,5.22,17.63,5.22,27.79v.55c0,11.51-2.07,21.59-6.22,30.24-4.12,8.65-9.81,15.88-17.09,21.72-7.21,5.83-15.72,10.22-25.38,13.13-9.7,2.9-20.1,4.36-31.18,4.36h-33.05v59.3h-43.46v-197.61Z"/>
    <rect class="cls-2" x="1763.41" y="181.09" width="43.45" height="197.61"/>
    <path class="cls-2" d="M1948.87,382.1c-14.47,0-27.95-2.67-40.35-7.91-12.43-5.27-23.17-12.45-32.2-21.6-9.03-9.16-16.08-19.93-21.17-32.32-5.07-12.43-7.61-25.72-7.61-39.83v-.55c0-14.12,2.53-27.33,7.61-39.67,5.08-12.33,12.14-23.17,21.17-32.5,9.03-9.29,19.85-16.63,32.45-22.01,12.62-5.37,26.54-8.02,41.81-8.02,9.22,0,17.66.75,25.25,2.24,7.65,1.51,14.54,3.58,20.77,6.21,6.21,2.64,11.96,5.83,17.22,9.6,5.27,3.79,10.16,7.9,14.68,12.41l-27.69,31.92c-7.71-6.96-15.57-12.41-23.53-16.36-8.03-3.95-17.02-5.95-26.98-5.95-8.28,0-15.96,1.58-23.01,4.8-7.05,3.22-13.14,7.63-18.2,13.26-5.08,5.67-9.02,12.23-11.87,19.64-2.82,7.44-4.22,15.39-4.22,23.86v.57c0,8.47,1.4,16.48,4.22,24,2.84,7.51,6.74,14.1,11.74,19.78,4.97,5.62,10.97,10.1,18.05,13.39,7.08,3.29,14.83,4.93,23.3,4.93,11.29,0,20.83-2.05,28.63-6.21,7.83-4.12,15.62-9.76,23.32-16.92l27.65,27.96c-5.09,5.45-10.34,10.34-15.81,14.66-5.45,4.34-11.42,8.05-17.93,11.15-6.47,3.12-13.59,5.46-21.3,7.06-7.71,1.62-16.38,2.42-25.99,2.42"/>
    <path class="cls-2" d="M87.74,213.44c-20.45-15.34-26.14-31.74-26.14-52.62,0-27.35,25.08-50.68,59.92-59.51.63-.15,1.28-.52,1.28-1.43,0-1.09-.9-1.47-1.78-1.37C52.56,106.76,0,149.93,0,201.9c0,30.72,15.31,58.53,47.27,77.5,30.46,18.08,128.9,62.57,157.11,83.73,20.45,15.33,26.14,31.72,26.14,52.62,0,27.33-25.08,50.68-59.92,59.51-.62.14-1.28.51-1.28,1.42,0,1.07.9,1.47,1.78,1.37,68.45-8.25,121.02-51.42,121.02-103.39,0-30.71-15.03-56.79-47.27-77.5-29.15-18.71-128.9-62.56-157.11-83.72"/>
    <path class="cls-1" d="M54.88,324.65c-.19-.53-.68-.96-1.32-.96s-1.08.38-1.29.88c-1.53,3.96-4.74,10.95-11.29,21.15-10.98,17.14-32.44,29.62-32.44,58.74,0,24.8,20.21,40.11,45.02,40.11s45.02-15.31,45.02-40.11c0-29.12-21.47-41.59-32.45-58.74-6.49-10.12-9.71-17.09-11.25-21.07"/>
    <path class="cls-2" d="M233.2,248.16c-.19.53-.67.97-1.32.97-.61,0-1.07-.38-1.28-.88-1.53-3.96-4.74-10.94-11.29-21.16-10.98-17.13-32.45-29.62-32.45-58.73,0-24.8,20.21-40.1,45.02-40.1s45.02,15.31,45.02,40.1c0,29.11-21.46,41.6-32.44,58.73-6.49,10.12-9.71,17.1-11.26,21.07"/>
    <path class="cls-2" d="M146.06,50.76c23.31,0,42.29-14.38,42.29-37.67,0-4.26-.53-8.29-1.39-11.87-.21-.84-.71-1.22-1.41-1.22-.55,0-1.05.37-1.32.89-6.84,12.83-21.42,20.38-38.18,20.38S114.72,13.71,107.88.89c-.26-.52-.77-.89-1.32-.89-.69,0-1.2.38-1.41,1.22-.87,3.58-1.39,7.61-1.39,11.87,0,23.29,18.99,37.67,42.29,37.67"/>
  </g>
</svg>