<?xml version="1.0" encoding="UTF-8"?>
<svg id="Layer_2" data-name="Layer 2" xmlns="http://www.w3.org/2000/svg" viewBox="0 0 1073.46 1253.53">
  <defs>
    <style>
      .cls-1 {
        fill: #f6881f;
      }

      .cls-2 {
        fill: #fff;
      }
    </style>
  </defs>
  <g id="Layer_1-2" data-name="Layer 1">
    <polygon class="cls-2" points="40.59 1144.9 0 1144.9 0 1117.83 110.52 1117.83 110.52 1144.9 69.94 1144.9 69.94 1251.22 40.59 1251.22 40.59 1144.9"/>
    <rect class="cls-2" x="134.35" y="1117.85" width="29.33" height="133.39"/>
    <path class="cls-2" d="M244.69,1253.15c-10.17,0-20.15-1.77-29.91-5.24-9.81-3.5-18.69-8.87-26.71-16.11l17.35-20.76c6.1,4.94,12.36,8.89,18.78,11.8,6.42,2.94,13.43,4.39,21.06,4.39,6.08,0,10.82-1.11,14.2-3.34,3.36-2.22,5.03-5.29,5.03-9.23v-.39c0-1.92-.33-3.58-1.05-5.06-.69-1.45-2.04-2.81-4.01-4.08-1.96-1.28-4.7-2.55-8.2-3.83-3.52-1.25-8.06-2.59-13.65-3.98-6.79-1.65-12.88-3.5-18.37-5.55-5.47-2.03-10.12-4.52-13.95-7.5-3.81-3.01-6.77-6.72-8.87-11.15-2.1-4.46-3.16-9.98-3.16-16.58v-.38c0-6.11,1.13-11.58,3.41-16.5,2.26-4.87,5.45-9.1,9.54-12.66,4.11-3.55,9.01-6.29,14.71-8.19,5.69-1.92,11.96-2.88,18.82-2.88,9.79,0,18.77,1.49,26.97,4.4,8.2,2.92,15.72,7.1,22.58,12.57l-15.25,22.09c-5.97-4.05-11.81-7.25-17.51-9.63-5.74-2.32-11.46-3.52-17.15-3.52s-10.01,1.12-12.88,3.35c-2.86,2.22-4.29,4.98-4.29,8.29v.36c0,2.17.43,4.05,1.25,5.64.84,1.58,2.33,3.01,4.49,4.28,2.18,1.27,5.13,2.47,8.89,3.62,3.76,1.14,8.5,2.47,14.25,4,6.74,1.78,12.77,3.79,18.06,6.01,5.29,2.21,9.74,4.88,13.36,8.01,3.63,3.11,6.37,6.75,8.23,10.94,1.84,4.19,2.76,9.2,2.76,15.05v.38c0,6.63-1.18,12.5-3.6,17.64-2.4,5.14-5.75,9.45-10.03,12.96-4.3,3.5-9.41,6.16-15.37,8-5.94,1.86-12.56,2.78-19.78,2.78"/>
    <polygon class="cls-2" points="319.01 1117.85 348.35 1117.85 348.35 1176.14 402.48 1117.85 437.91 1117.85 383.6 1174.44 440.41 1251.24 405.14 1251.24 363.79 1194.44 348.35 1210.45 348.35 1251.24 319.01 1251.24 319.01 1117.85"/>
    <path class="cls-2" d="M522.47,1077.45h22.34l15.09,12.57,15.08-12.57h21.99l-23.52,29.9h-27.51l-23.48-29.9ZM562.93,1253.15c-10.16,0-20.14-1.76-29.9-5.25-9.79-3.5-18.69-8.88-26.69-16.11l17.34-20.76c6.09,4.94,12.35,8.88,18.76,11.8,6.42,2.94,13.46,4.39,21.09,4.39,6.08,0,10.81-1.11,14.18-3.34,3.37-2.23,5.04-5.3,5.04-9.23v-.4c0-1.9-.36-3.59-1.05-5.05-.7-1.46-2.03-2.82-4.04-4.09-1.95-1.28-4.69-2.55-8.2-3.82-3.5-1.27-8.05-2.6-13.64-3.99-6.76-1.65-12.87-3.5-18.35-5.53-5.48-2.03-10.13-4.54-13.96-7.54-3.82-2.98-6.78-6.68-8.88-11.13-2.1-4.45-3.15-9.99-3.15-16.59v-.37c0-6.13,1.14-11.6,3.39-16.49,2.28-4.91,5.46-9.14,9.57-12.68,4.11-3.56,9.01-6.29,14.7-8.19,5.71-1.92,11.98-2.86,18.84-2.86,9.77,0,18.77,1.46,26.97,4.39,8.2,2.92,15.73,7.12,22.6,12.57l-15.25,22.1c-5.99-4.05-11.84-7.26-17.53-9.62-5.72-2.34-11.44-3.52-17.17-3.52s-10,1.11-12.86,3.31c-2.86,2.23-4.31,5.02-4.31,8.31v.38c0,2.17.43,4.02,1.26,5.61.82,1.6,2.32,3.03,4.47,4.28,2.17,1.29,5.13,2.5,8.9,3.63,3.75,1.14,8.49,2.49,14.24,4.01,6.74,1.77,12.76,3.79,18.05,5.99,5.28,2.24,9.75,4.91,13.38,8,3.63,3.12,6.36,6.77,8.2,10.96,1.85,4.2,2.79,9.23,2.79,15.07v.39c0,6.61-1.2,12.47-3.59,17.61-2.41,5.16-5.76,9.45-10.03,12.95-4.31,3.51-9.43,6.16-15.38,8.02-5.97,1.83-12.55,2.77-19.8,2.77"/>
    <polygon class="cls-2" points="637.26 1117.85 737.68 1117.85 737.68 1143.94 666.22 1143.94 666.22 1171.01 729.12 1171.01 729.12 1197.12 666.22 1197.12 666.22 1225.11 738.64 1225.11 738.64 1251.24 637.26 1251.24 637.26 1117.85"/>
    <path class="cls-2" d="M817.53,1185.1c7.36,0,13.08-1.93,17.15-5.81,4.08-3.88,6.12-8.68,6.12-14.4v-.37c0-6.6-2.14-11.62-6.39-15.05-4.27-3.43-10.08-5.15-17.44-5.15h-22.68v40.78h23.24ZM764.95,1117.85h54.49c8,0,15.16,1.1,21.45,3.32,6.28,2.24,11.63,5.38,15.99,9.42,4.4,4.07,7.76,8.93,10.1,14.6,2.36,5.65,3.52,11.9,3.52,18.76v.37c0,7.77-1.4,14.58-4.2,20.42-2.78,5.84-6.62,10.72-11.54,14.66-4.87,3.94-10.61,6.9-17.13,8.87-6.55,1.96-13.57,2.94-21.05,2.94h-22.31v40.03h-29.34v-133.39Z"/>
    <rect class="cls-2" x="893.57" y="1117.85" width="29.33" height="133.39"/>
    <path class="cls-2" d="M1018.77,1253.53c-9.77,0-18.87-1.8-27.24-5.34-8.39-3.56-15.64-8.41-21.74-14.58-6.1-6.18-10.86-13.45-14.29-21.81-3.43-8.39-5.13-17.36-5.13-26.88v-.37c0-9.53,1.71-18.45,5.13-26.78,3.43-8.33,8.19-15.64,14.29-21.94,6.1-6.27,13.4-11.23,21.9-14.85,8.52-3.62,17.92-5.41,28.22-5.41,6.22,0,11.92.51,17.04,1.52,5.16,1.02,9.81,2.42,14.02,4.19,4.19,1.78,8.07,3.93,11.62,6.48,3.56,2.56,6.86,5.33,9.91,8.38l-18.69,21.54c-5.21-4.7-10.51-8.38-15.88-11.05-5.42-2.67-11.49-4.01-18.21-4.01-5.59,0-10.77,1.07-15.53,3.24-4.76,2.18-8.87,5.15-12.29,8.95-3.43,3.83-6.09,8.25-8.01,13.26-1.9,5.02-2.85,10.39-2.85,16.1v.38c0,5.72.94,11.12,2.85,16.2,1.92,5.07,4.55,9.52,7.92,13.35,3.35,3.79,7.4,6.82,12.18,9.04,4.78,2.22,10.01,3.33,15.73,3.33,7.62,0,14.06-1.38,19.33-4.19,5.28-2.78,10.54-6.59,15.74-11.42l18.66,18.87c-3.43,3.68-6.98,6.98-10.67,9.9-3.68,2.93-7.71,5.43-12.1,7.53-4.37,2.11-9.17,3.69-14.38,4.77-5.21,1.09-11.06,1.63-17.54,1.63"/>
    <path class="cls-2" d="M414.95,438.96c-42.05-31.54-53.76-65.27-53.76-108.22,0-56.24,51.57-104.24,123.22-122.39,1.29-.3,2.63-1.07,2.63-2.93,0-2.23-1.85-3.03-3.66-2.82-140.78,16.96-248.87,105.74-248.87,212.63,0,63.17,31.49,120.37,97.21,159.38,62.64,37.19,265.1,128.67,323.12,172.2,42.05,31.52,53.76,65.24,53.76,108.22,0,56.21-51.57,104.22-123.22,122.39-1.27.29-2.63,1.05-2.63,2.92,0,2.21,1.85,3.03,3.66,2.82,140.78-16.96,248.88-105.74,248.88-212.63,0-63.16-30.9-116.8-97.22-159.4-59.95-38.48-265.1-128.66-323.12-172.18"/>
    <path class="cls-1" d="M347.38,667.67c-.4-1.08-1.4-1.97-2.71-1.97s-2.22.78-2.64,1.81c-3.14,8.15-9.75,22.52-23.22,43.5-22.57,35.26-66.72,60.91-66.72,120.8,0,51,41.56,82.49,92.58,82.49s92.58-31.49,92.58-82.49c0-59.88-44.15-85.54-66.73-120.8-13.34-20.81-19.97-35.15-23.13-43.34"/>
    <path class="cls-2" d="M714.12,510.38c-.4,1.1-1.38,1.99-2.71,1.99-1.26,0-2.21-.78-2.63-1.81-3.15-8.15-9.75-22.5-23.22-43.52-22.57-35.23-66.73-60.91-66.73-120.78,0-51,41.56-82.47,92.58-82.47s92.58,31.48,92.58,82.47c0,59.87-44.13,85.55-66.72,120.78-13.34,20.81-19.97,35.16-23.15,43.34"/>
    <path class="cls-2" d="M534.9,104.39c47.94,0,86.98-29.57,86.98-77.47,0-8.75-1.1-17.05-2.86-24.41-.42-1.73-1.47-2.51-2.89-2.51-1.12,0-2.16.75-2.71,1.82-14.07,26.38-44.05,41.91-78.51,41.91s-64.45-15.53-78.51-41.91c-.53-1.07-1.58-1.82-2.71-1.82-1.42,0-2.47.78-2.89,2.51-1.78,7.36-2.86,15.66-2.86,24.41,0,47.9,39.05,77.47,86.98,77.47"/>
  </g>
</svg>