<?xml version="1.0" encoding="UTF-8"?>
<svg id="Layer_2" data-name="Layer 2" xmlns="http://www.w3.org/2000/svg" viewBox="0 0 548.54 897.69">
  <defs>
    <style>
      .cls-1 {
        fill: #231f20;
      }
    </style>
  </defs>
  <g id="Layer_1-2" data-name="Layer 1">
    <path class="cls-1" d="M164.75,400.79c-38.39-28.8-49.09-59.59-49.09-98.81,0-51.35,47.09-95.17,112.51-111.74,1.18-.27,2.4-.98,2.4-2.68,0-2.04-1.69-2.76-3.34-2.58C98.69,200.46,0,281.53,0,379.11c0,57.68,28.75,109.91,88.76,145.52,57.19,33.95,242.05,117.48,295.02,157.23,38.39,28.78,49.09,59.57,49.09,98.81,0,51.33-47.09,95.16-112.51,111.74-1.16.26-2.4.96-2.4,2.66,0,2.01,1.69,2.76,3.34,2.58,128.54-15.48,227.24-96.55,227.24-194.14,0-57.67-28.21-106.64-88.77-145.54-54.74-35.13-242.05-117.47-295.02-157.2"/>
    <path class="cls-1" d="M103.05,609.61c-.36-.99-1.28-1.8-2.48-1.8s-2.03.71-2.41,1.65c-2.86,7.44-8.9,20.56-21.2,39.72-20.61,32.19-60.92,55.62-60.92,110.29,0,46.56,37.94,75.31,84.53,75.31s84.53-28.75,84.53-75.31c0-54.68-40.31-78.1-60.93-110.29-12.18-19-18.23-32.09-21.12-39.57"/>
    <path class="cls-1" d="M437.89,465.99c-.36,1-1.26,1.81-2.48,1.81-1.15,0-2.01-.71-2.4-1.65-2.88-7.44-8.9-20.55-21.2-39.73-20.61-32.17-60.93-55.62-60.93-110.28,0-46.56,37.94-75.3,84.53-75.3s84.53,28.74,84.53,75.3c0,54.67-40.3,78.11-60.92,110.28-12.18,19-18.23,32.1-21.14,39.57"/>
    <path class="cls-1" d="M274.26,95.31c43.77,0,79.41-27,79.41-70.74,0-7.99-1-15.57-2.61-22.29-.39-1.58-1.34-2.29-2.64-2.29-1.03,0-1.98.69-2.48,1.66-12.84,24.09-40.22,38.27-71.69,38.27S215.42,25.75,202.57,1.66c-.49-.98-1.44-1.66-2.48-1.66-1.3,0-2.25.71-2.64,2.29-1.63,6.72-2.61,14.29-2.61,22.29,0,43.73,35.66,70.74,79.42,70.74"/>
  </g>
</svg>